<svg xmlns="http://www.w3.org/2000/svg" viewBox="0 0 512 512">
  <defs>
    <linearGradient id="grad" x1="0%" y1="0%" x2="100%" y2="100%">
      <stop offset="0%" style="stop-color:#6366f1;stop-opacity:1" />
      <stop offset="100%" style="stop-color:#4f46e5;stop-opacity:1" />
    </linearGradient>
  </defs>
  <rect width="512" height="512" rx="115" fill="url(#grad)"/>
  <g transform="translate(128, 110)" fill="#ffffff">
    <!-- Shopping cart icon -->
    <path d="M40 40 L60 40 L80 180 L220 180 L240 100 L100 100 L95 75 L240 75 L230 40 L40 40 Z M70 55 L230 55 L235 80 L105 80 L110 100 L235 100 L225 165 L85 165 L70 55 z" opacity="0.3"/>
    <path d="M30 30 L55 30 L80 200 L230 200 L255 90 L90 90 L85 60 L260 60 L240 220 L70 220 L40 30 z M60 50 L250 50 L255 85 L95 85 L100 110 L245 110 L230 195 L85 195 L60 50 z"/>
    <circle cx="100" cy="250" r="25"/>
    <circle cx="210" cy="250" r="25"/>
    <rect x="150" y="120" width="80" height="10" rx="5"/>
    <rect x="145" y="140" width="70" height="10" rx="5"/>
    <rect x="140" y="160" width="60" height="10" rx="5"/>
  </g>
  <!-- Checkmark indicator -->
  <circle cx="380" cy="120" r="60" fill="#10b981"/>
  <path d="M355 120 L375 140 L405 100" stroke="#ffffff" stroke-width="12" fill="none" stroke-linecap="round" stroke-linejoin="round"/>
</svg>
